<?xml version="1.0" encoding="UTF-8"?><!DOCTYPE svg PUBLIC "-//W3C//DTD SVG 1.1//EN" "http://www.w3.org/Graphics/SVG/1.1/DTD/svg11.dtd"><svg version="1.1" xmlns="http://www.w3.org/2000/svg" width="1024" height="1024" viewBox="0 0 1024 1024"><g transform="scale(6.4,6.4) rotate(0,80,80)" fill-opacity="1">
	<g><circle cx="80" cy="80" r="80" fill="#FFFFFF" display="inline"/></g>
	<g>
		<g id="ringback" display="none"><path fill="#FF0100" d="M80,0C35.817,0,0,35.817,0,80c0,44.184,35.817,80,80,80c44.184,0,80-35.816,80-80C160,35.817,124.184,0,80,0z M80,155.5c-41.697,0-75.5-33.804-75.5-75.5C4.5,38.303,38.303,4.5,80,4.5c41.696,0,75.5,33.803,75.5,75.5C155.5,121.696,121.696,155.5,80,155.5z"/></g>

		<g id="ringfore" display="inline" transform="rotate(155,80,80)">
			<path fill="#FF0100" d="M39.5,16.2v-5.3c-5.7,3.4-11.1,7.6-16,12.5c-5,5-9.1,10.3-12.5,16h5.3c2.9-4.5,6.3-8.8,10.3-12.8S34.9,19.2,39.5,16.2z"/>
			<path fill="#FF0100" d="M15.6,40.4h-5.2c-2.8,5-5.1,10.3-6.7,15.8l3.2,5.5C8.7,54.1,11.6,47,15.6,40.4z"/>
			<path fill="#FF0100" d="M97.4,2C91.9,0.8,86.1,0.1,80,0C65.2,0.3,52.1,3.8,40.5,10.4v5.2C52,8.5,65.1,4.8,80,4.5c7.3,0.1,14.1,1.1,20.5,2.9L97.4,2z"/>
			<path fill="#FF0100" d="M129.3,22.8l2.3-3.9c-9.5-8.2-20.5-13.7-32.8-16.6l3.1,5.5C112.1,10.7,121.3,15.7,129.3,22.8z"/>
			<path fill="#FF0100" d="M132.3,19.5l-2.2,3.9c1.1,1,2.2,2.1,3.3,3.2c9,9,15.3,19.4,18.8,31.4l5.5,3.1c-3.4-14.5-10.5-27-21.1-37.7C135.2,22.1,133.8,20.8,132.3,19.5z"/>
			<path fill="#FF0100" d="M158,62.4l-5.4-3.1c1.8,6.5,2.8,13.4,2.9,20.7c-0.1,6-0.8,11.7-2,17.1l3.2,5.6c2-7.1,3.1-14.7,3.3-22.7C159.9,73.8,159.2,68,158,62.4z"/>
			<path fill="#FF0100" d="M156.3,104l-3.1-5.5c-3.4,13.4-9.9,25-19.8,34.9c-4,4-8.3,7.4-12.9,10.4v5.2c5.8-3.4,11.1-7.5,16.1-12.5C146,127.2,152.6,116.3,156.3,104z"/>
			<path fill="#FF0100" d="M119.5,149.6v-5.2c-11.4,7-24.6,10.7-39.5,11.1c-7.3-0.2-14.2-1.2-20.7-3l3.1,5.4c5.6,1.2,11.5,1.9,17.6,2.1C94.8,159.6,108,156.2,119.5,149.6z"/>
			<path fill="#FF0100" d="M6.5,63.1l-3.2-5.6C1.3,64.5,0.2,72,0,80c0.4,14.7,3.8,27.9,10.4,39.4h5.2C8.6,108,4.9,94.9,4.5,80C4.7,74.1,5.3,68.5,6.5,63.1z"/>
			<path fill="#FF0100" d="M16.2,120.4H11c3.3,5.8,7.5,11.2,12.5,16.1c4.9,5,10.2,9.1,16,12.5l-0.1-5.3c-4.5-2.9-8.8-6.3-12.8-10.3C22.6,129.3,19.1,125,16.2,120.4z"/>
			<path fill="#FF0100" d="M40.4,144.4l0.1,5.2c6.3,3.6,13.2,6.3,20.6,8l-3.2-5.5C51.7,150.3,45.9,147.7,40.4,144.4z"/>
		</g>

		<g id="centersign" transform="translate(0,0) scale(1,1)">
			<g id="signstar" display="inline" transform="translate(0,0)">
				<polygon fill="#FF0100" points="79.5,58.5 84.633,73.722 100.563,73.722 87.818,83.277 92.42,98.5 79.5,89.475 66.58,98.5 71.182,83.277 58.438,73.722 74.367,73.722" transform="rotate(0,80,80)"/>
			</g>
			<g id="signparty" display="none" transform="translate(0,0)"><path fill="#FF0100" d="M80.448,58.475c10.11,3.89,16.197,16.188,10.938,26.069L78.592,71.51l4.953-4.941l-3.097-3.153c-1.651,1.683-4.333,1.999-6.19,1.261l-9.699,9.985l5.572,5.571l3.61-3.784l12.792,13.035c-6.292,3.574-14.958,2.418-21.354-4.311l-2.992,3.156c0.826,1.258,1.65,2.414,2.579,3.466c0,0.104-0.309,0.316-0.309,0.316c-0.207,0-0.413-0.105-0.517-0.105c-1.65,0-2.993,1.47-2.993,3.153c0,1.682,1.342,3.047,2.993,3.047s3.095-1.365,3.095-3.047c0-0.209-0.103-0.421-0.103-0.525l0.412-0.525c7.429,5.045,15.477,5.677,24.142,0.423l3.508,3.675l4.953-4.938l-3.612-3.682C106.654,73.717,92.831,58.054,80.448,58.475" transform="rotate(0,80,80)"/></g>
		</g>
	</g>
<g><g transform="rotate(-120,80,80)"><g transform="translate(68.625,8) scale(0.0888671875,0.137744140625)"><g transform="scale(1,-1) translate(0,-218)"><path d="M106 181Q121 181 125 173V172L123 169V162H125Q143 175 155 175Q178 175 187 164L186 161L187 156Q187 149 173 127Q173 120 168 114L166 111L163 107Q160 102 154 97Q153 96 144 90Q144 86 137 83V82L138 70Q138 67 138 64V61V48L137 43Q136 18 131 8L129 -2Q125 -13 121 -21Q121 -25 111 -29Q107 -33 96 -33L87 -38H85L82 -35H75V-31L88 -26Q93 -26 103 -12Q108 -7 108 -2L107 3L111 6V23L112 24V25L110 29V34L111 47L109 59V64Q109 62 109 67L96 65H93Q84 65 80 76V102L76 105Q73 102 66 99Q61 92 49 86L44 82H42Q18 90 18 94L13 102V108L12 118Q13 127 17 134L21 145Q25 158 35 180H36L40 177V156Q40 140 32 124V122L33 120Q38 117 46 122L56 127Q56 131 66 133L68 135H74Q74 139 78 139Q82 147 84 161L85 166Q88 166 91 177Q95 181 106 181ZM87 147V142H88Q105 150 106 152L102 160H98Q96 160 90 149L87 147ZM128 136V119L129 106L130 108Q132 112 140 119Q144 126 158 141Q158 147 162 150Q159 150 159 153L160 157L138 147Q135 144 129 144L128 136ZM88 109V107L87 102L93 91Q96 91 103 86L107 94L109 105L107 113V126L105 128L92 119Q92 116 87 116L86 109H88Z" fill="#FF0100"/></g></g></g><g transform="rotate(-93.33333333333333,80,80)"><g transform="translate(68.625,8) scale(0.0888671875,0.137744140625)"><g transform="scale(1,-1) translate(0,-218)"><path d="M137 183Q157 179 165 175Q169 173 175 164Q180 164 189 139L190 138V137L191 122L190 118L191 99V77L190 71L191 70V69Q190 50 188 50L189 49V48Q188 36 187 36V34H188L187 -11V-41Q185 -48 178 -48L167 -49Q156 -34 149 -7V-6L148 -7Q145 -14 142 -14L115 -13V-12L112 -13Q93 -13 86 -18L70 -23H61Q41 -16 41 0L39 3V4Q39 7 53 9L54 8V7L53 -1L56 -3Q58 -1 68 -1L71 2H73L74 1H75Q75 3 94 5Q94 7 100 7V8Q97 8 95 11Q90 11 87 15V18H93L96 16H102Q116 19 116 26Q126 38 126 43V44L120 57L117 67H116Q114 67 106 55V53L112 45Q110 31 107 31H94Q92 29 79 27L76 24H69Q67 24 65 29L66 40V45Q68 50 74 53Q74 56 83 59Q83 63 88 63V66Q70 61 64 61H63L60 63L61 73V78Q61 81 85 97L90 103V104L89 105V106Q86 106 85 100L75 99Q72 106 72 112Q72 116 87 121L89 126Q87 128 86 140L85 141L83 144Q75 142 50 124Q45 124 38 117L40 109L38 106V98L41 88V83L39 81L41 72L40 71V70L41 66L39 60Q39 53 44 52V36L42 33V28L43 18Q38 11 36 -16L27 -21H23Q15 -21 15 5Q21 20 21 34L20 38L21 45L20 57L21 75L20 102L13 112V134L16 137L15 138Q16 155 20 155H23Q23 144 30 134Q35 135 39 140Q54 146 75 161Q78 161 81 164Q100 173 114 177Q114 179 136 182L137 183ZM105 157Q111 139 112 139Q112 131 118 131Q122 131 125 125V123L118 111Q122 106 126 83L133 63L135 65V75L131 88V99Q132 105 134 105H139Q148 105 148 93L149 90V81L147 78V73Q147 65 143 52V49L151 26L149 17Q149 14 161 5V4H167V5L166 9L167 19V49L168 53L167 54V55Q168 75 170 81V87L171 115Q167 155 163 155Q163 161 143 168H130Q127 165 113 162Q111 159 105 157ZM134 147Q155 145 155 137L157 135V126Q157 123 149 122L126 142H124V146H126L134 147ZM92 144L91 141Q95 126 96 126L99 127V128Q95 144 92 144ZM107 96L104 92H109V94L107 96ZM134 25L127 16Q130 7 141 7L145 6Q145 13 138 18Q138 23 134 25ZM116 11L115 8H116L117 9V11H116ZM111 8V7H114V8H111Z" fill="#FF0100"/></g></g></g><g transform="rotate(-66.66666666666666,80,80)"><g transform="translate(68.625,8) scale(0.0888671875,0.137744140625)"><g transform="scale(1,-1) translate(0,-218)"><path d="M136 173H138Q147 166 147 151L149 140H151L173 151V157Q173 166 167 166V169L170 172Q181 172 186 156Q203 156 205 150V145Q188 143 188 135L187 100L189 90V87L185 80V72L187 70Q192 75 196 75H212L216 71V70Q215 61 207 61L182 33L178 23H190L200 27H204L214 24L221 16V9L208 -7Q205 -13 185 -20H180V-15Q183 -15 183 -11Q187 -11 187 -7L191 -4L190 -3V2H196Q196 8 202 14V15L199 18H192Q190 16 179 15Q179 13 172 12Q172 10 164 6L144 -23H141Q135 -23 135 -15L133 -11V-8H139Q142 -1 142 8L148 10Q148 13 154 17L155 18L159 20Q159 23 163 23V24Q163 35 158 36Q158 34 151 32L147 31Q146 26 144 26L136 27L135 26V25L137 23V20Q129 7 122 7H113L104 14Q99 1 77 -16H73Q58 -16 58 5V8L62 32Q55 35 55 38V46Q71 55 71 59L68 67V78L60 81V84Q72 91 72 98L73 111H76Q78 111 80 102L81 101H82L93 120V123H97L98 122H99Q99 128 106 128L111 126V116H112Q117 116 118 119L109 133V135Q112 135 118 140H121V137L118 133L120 131H129L135 135V145L137 148V155Q135 157 132 170L136 173ZM71 170H83L91 163V159L88 155H89Q90 158 95 158Q103 155 103 153L104 154H107L109 152Q109 144 80 130Q60 117 60 113L61 99Q53 89 53 62Q48 46 42 4Q30 -30 13 -30L7 -21V-9L13 -10Q24 -10 36 39L46 104Q47 104 50 117L51 118Q49 118 46 129V136L54 147H57V146L54 136L55 135H57Q73 143 86 153Q79 153 75 158Q71 158 65 153H62V155Q71 164 71 170ZM148 110L150 99L149 98H151Q151 111 170 111H173V132H172L151 119L148 110ZM119 85Q124 85 124 81Q119 71 113 71V69L118 59H130Q132 59 132 56L119 41V31L122 28H125V35H128L129 34H130Q130 36 137 40L136 41V42L138 50V55L135 60L137 66V74L134 79L135 82L132 84Q133 93 135 95V104L119 85ZM109 101V99H110V101H109ZM152 98V94L154 92L156 95V97L155 98V99L152 98ZM82 77V65Q86 65 88 84V85Q82 82 82 77ZM164 70L172 67V74H170L164 70ZM161 67Q161 64 156 64Q157 57 160 57H161Q161 60 164 60L169 59L171 62L161 67ZM67 37V35Q72 23 72 6H73Q75 6 100 40L103 54V55L100 62H99Q71 42 69 42Q69 37 67 37ZM73 37H88Q91 37 91 33Q91 26 82 22H77L70 29V35Q73 35 73 37Z" fill="#FF0100"/></g></g></g><g transform="rotate(-40,80,80)"><g transform="translate(68.625,8) scale(0.0888671875,0.137744140625)"><g transform="scale(1,-1) translate(0,-218)"><path d="M142 197H167Q169 197 169 192H176Q200 190 200 173Q200 162 192 162Q176 152 166 150V149Q187 149 187 141Q187 138 169 124L163 118V115Q163 113 175 112L179 108V105Q179 102 176 98Q183 98 187 90Q203 87 203 84V79L193 66V64L197 63L203 64Q211 62 211 56V55Q209 49 193 49Q182 48 182 38L181 35Q183 35 184 19Q186 4 201 -19L205 -24V-28H183Q180 -28 174 8Q170 8 170 33V38Q170 40 164 41L162 45V49L170 61V77H169Q156 71 156 65L141 25Q126 5 105 5V9Q114 9 130 34L125 35Q125 29 116 21Q113 19 104 18Q97 20 92 26Q89 15 65 -5H60Q46 -1 46 16V20L50 43Q50 46 43 49V59L59 70V71L56 78V90Q56 92 48 96V98Q60 105 60 112L61 126H64Q66 126 68 117L69 116H70Q76 124 76 128Q81 133 81 138H85L86 137H87Q88 142 90 142H94L99 141V131H105Q105 135 114 136L122 135Q128 135 146 142V144Q142 144 142 146V147Q142 149 145 149V157Q143 159 143 167Q136 165 130 148Q125 144 113 144Q106 152 106 155Q102 155 98 171L100 173Q114 168 122 168L143 178L142 197ZM59 186H71L79 179V175L77 172L78 173H79Q91 173 91 169L94 170L97 169V168Q97 159 61 141Q61 139 49 131L48 127L49 113Q41 103 41 75Q36 59 30 16Q18 -19 1 -19L-5 -9V-5L-4 -4L-5 -3V3H-2L1 1Q15 14 17 25L20 35Q30 78 34 118L38 131L39 132Q34 139 34 145V151L44 164H46V160L42 152L44 150H45Q68 162 76 170H75L73 168H71L63 174Q59 174 52 168H49V170Q59 180 59 186ZM169 182L165 170V169H166L171 181L170 182H169ZM107 99Q112 97 112 94Q112 92 101 83L106 72H118L120 70V69L119 68V67H120Q138 81 149 94Q142 94 124 80H119L114 85V92Q117 101 129 108L139 119H137L133 116Q124 117 124 119Q121 119 107 99ZM98 117L97 116V113H98L99 117H98ZM70 91V78Q74 78 76 98V99Q70 96 70 91ZM150 76V74L154 73Q154 75 162 79L172 86V95H171Q150 79 150 76ZM55 48L57 42H58Q58 51 61 51H62L65 49L75 50L79 47Q79 37 70 34H65L58 41Q59 17 62 17L89 56L91 68L87 75L63 58Q57 56 57 51L55 48ZM110 57L117 56H118V61L119 66Q116 66 110 57ZM128 56V55H129Q137 56 143 65H142Q132 56 128 56ZM107 55V43Q107 40 118 39Q108 50 108 55H107ZM120 39V38H122V39H120ZM186 33Q211 33 230 24V13Q224 10 215 9Q203 10 203 15Q194 18 184 30V31L186 33Z" fill="#FF0100"/></g></g></g><g transform="rotate(-13.333333333333329,80,80)"><g transform="translate(68.625,8) scale(0.0888671875,0.137744140625)"><g transform="scale(1,-1) translate(0,-218)"><path d="M94 206H99Q109 201 109 193L110 192H111L117 194L123 190V185Q119 177 105 177Q97 159 93 154H89V164L92 175H89L86 173Q78 173 76 181V184L78 186H89L94 191V196L92 199V204L94 206ZM168 165H172V163Q189 163 189 156L190 155V153Q188 153 187 149Q184 149 184 146Q181 146 179 140Q176 140 176 133Q172 133 172 126Q160 105 160 98H161Q168 102 172 102Q181 101 187 92V91Q183 64 181 64H179V58Q171 49 171 43L166 36Q173 36 181 30Q204 21 204 15L205 5V3Q210 3 210 -2Q210 -9 216 -20L217 -44L216 -45H214L198 -20Q193 -20 188 -13Q183 -13 183 -6Q176 1 166 7L165 8Q160 10 158 17Q148 17 148 20H146V14L143 11H138Q138 8 133 8Q133 5 131 5H127L107 6L101 -2Q101 -7 94 -7Q94 -12 81 -14V-13L80 -14H66Q64 -14 62 -5L63 -4V-3L62 1L72 27Q80 43 84 45Q81 45 81 50L73 53Q73 49 68 49Q68 45 62 42Q62 36 58 34Q58 32 55 32V29Q49 15 48 3Q37 1 37 -7H34Q28 -7 25 20Q32 20 36 32Q40 32 47 44Q49 44 49 48Q51 48 57 56Q59 56 63 67Q67 67 68 74H74L76 68L77 69H80Q82 69 82 66L83 67H88Q88 63 93 61L103 80Q119 102 121 108Q124 110 133 125H135Q137 131 146 143Q150 143 150 149Q164 162 167 162L168 165ZM114 77V70Q114 68 111 68V67Q111 63 129 58Q144 54 144 49L151 48V53Q165 69 165 86L159 87L150 74H147L141 83V95Q146 108 150 112Q153 122 158 132Q158 138 163 143V144H161Q159 144 157 138Q153 138 153 132Q149 132 145 120Q140 120 138 112Q134 109 131 100H129L118 78L114 77ZM93 124H100Q107 124 109 119L113 115V109L102 102Q92 95 92 93Q88 93 88 88Q81 84 81 81Q80 75 78 75H76Q74 75 73 80Q73 86 78 88L83 104H82Q82 99 75 98Q67 88 62 86Q62 81 50 78H49Q49 81 44 82L43 90Q43 107 46 107H48Q52 102 55 102Q61 102 89 119Q93 119 93 124ZM103 60L101 55Q101 50 107 42Q107 39 112 30Q113 20 119 20Q131 26 136 31H137V32Q133 32 133 36Q126 36 123 45Q116 56 111 56L103 60ZM90 31L88 23H90Q90 28 92 30V31H90Z" fill="#FF0100"/></g></g></g><g transform="rotate(13.333333333333343,80,80)"><g transform="translate(68.625,8) scale(0.0888671875,0.137744140625)"><g transform="scale(1,-1) translate(0,-218)"><path d="M108 202H116Q136 202 145 187Q145 177 134 177H128Q120 177 107 186Q95 191 95 193V197Q97 202 108 202ZM168 177H180Q185 177 188 172V171Q188 168 176 166L167 167Q141 167 128 140L120 128Q120 125 115 123L113 121L107 114Q95 109 95 106H100Q108 106 149 119V123Q144 134 144 141L150 143Q182 132 182 118V117Q181 108 173 108H162L152 112Q148 109 128 103Q128 98 116 95V85Q130 95 137 98H143Q156 98 162 80V79L161 68L162 55V52L161 44L164 18H163L165 13L164 0L165 -5L164 -6L165 -11Q165 -40 148 -40Q137 -40 122 -19Q122 -15 118 -11H113L112 -6L123 -8L124 -7H125L139 -9L141 4V7Q126 7 107 21L105 3L106 -22L98 -27H96Q93 -27 88 -13V-6L87 3L90 42L89 47Q92 50 94 69L93 70V73L98 87L99 88V93H96Q86 93 67 85L65 87V91Q65 101 81 105L107 134H106Q98 128 86 128Q44 132 42 142V151H43Q49 151 55 146H59L116 158Q124 164 132 164Q132 167 155 171Q155 174 168 177ZM132 78Q116 65 115 59H118Q124 63 132 63V62L137 63V72L132 78ZM111 48L110 45L111 44V41Q109 39 108 30H110Q110 32 116 37L119 46L111 49V48ZM137 40L131 33Q131 31 138 28L139 29V38L137 40Z" fill="#FF0100"/></g></g></g><g transform="rotate(40,80,80)"><g transform="translate(68.625,8) scale(0.0888671875,0.137744140625)"><g transform="scale(1,-1) translate(0,-218)"><path d="M108 208H118Q128 208 140 204Q149 201 149 194L153 188V185L152 184Q143 169 139 168V165L157 171L181 163L184 159V158Q181 150 170 150Q170 148 151 140Q136 123 127 97Q142 94 149 88Q155 81 157 72Q162 67 167 34L166 33L167 28V21L169 18V6L168 5L169 4V1L167 -2V-13Q151 -40 144 -40H143L124 -37L115 -38Q94 -36 94 -32L93 -33H87Q76 -33 76 -19L75 -16V-2Q77 -1 77 10Q80 14 87 40Q89 40 89 49L93 53V59H92Q85 47 66 35Q65 32 54 30Q46 24 42 24H38V29Q60 36 96 99Q102 104 108 125H107Q89 115 75 110H69Q62 112 42 131L39 132V136L79 150Q111 157 111 159V163L109 166V175L106 187L102 194V202L108 208ZM114 132V131H116V132H114ZM98 24Q107 31 111 39Q111 41 106 41V44Q113 53 119 53Q141 49 141 45V47Q141 76 131 80Q124 80 119 71Q112 71 103 37Q98 31 98 24ZM128 12Q133 11 133 9Q133 -4 124 -4L108 -9L107 -8H106L95 -12Q97 -19 110 -25Q126 -21 134 -8L140 15V27L130 14L128 12Z" fill="#FF0100"/></g></g></g><g transform="rotate(66.66666666666669,80,80)"><g transform="translate(68.625,8) scale(0.0888671875,0.137744140625)"><g transform="scale(1,-1) translate(0,-218)"><path d="M144 177Q155 172 155 164L156 163V162L153 156Q153 151 156 147Q154 134 152 134L153 133V132Q151 113 144 100Q144 96 132 86V85Q150 98 157 101Q173 117 173 120Q169 121 167 125V127L170 130H180Q182 130 182 126Q187 126 187 119L188 118H189Q189 94 179 94Q169 84 160 84L145 76V73L156 70L160 75H161L163 73V65Q172 65 193 32Q193 26 198 19V15L196 13H194Q184 27 180 27Q177 30 172 30L148 46L147 45L142 34Q142 28 136 26Q136 24 129 18Q129 14 123 14Q123 8 110 -1L91 -15H85L81 -9L82 0L81 9Q84 9 85 24Q93 26 93 32L95 49L94 59L95 71L92 80L93 85Q90 86 90 91L91 104L90 113Q92 113 93 122Q93 131 87 138H86L83 136H81L75 145L71 146V150L76 155H78L79 154H80Q81 157 88 157H89L92 155H96Q101 155 110 161L116 167Q123 167 123 171V176L144 177ZM34 163H38Q50 150 70 145Q82 133 82 127L80 124L81 110L76 103L77 96Q77 84 61 81L49 92V95L51 97H60V102L61 112Q61 125 42 137Q36 147 34 161V163ZM133 151Q133 147 109 143Q101 140 101 138V137Q103 134 105 124L109 122L111 124H115Q122 124 126 114L125 109L126 108H127L134 130L132 132V136Q135 140 135 143V149L133 151ZM34 96H40L43 93V91L40 82L38 45L39 42L37 26L39 20Q45 24 51 39L59 57L68 69H69Q71 69 72 64L71 45V41Q64 8 56 -3Q56 -9 47 -23L37 -27H33Q17 -21 17 -17L25 6L24 16L26 41L24 53L27 62L26 65L29 87V91L34 96ZM102 68L103 58L102 51L104 27L103 24L124 38Q128 44 137 49V51Q136 55 120 66L111 65L108 69V75H109L118 74L126 82L125 83H124Q103 83 103 78L102 68Z" fill="#FF0100"/></g></g></g><g transform="rotate(93.33333333333334,80,80)"><g transform="translate(68.625,8) scale(0.0888671875,0.137744140625)"><g transform="scale(1,-1) translate(0,-218)"><path d="M163 157H166Q184 151 197 141H198L204 143H206L212 135V134L211 128Q213 126 214 106L211 104H209L205 105L192 99H190L170 105L157 100H155L152 103V104L162 128Q162 130 149 142L148 147V148L150 150H153L154 149H155L163 157ZM90 151H94Q100 146 103 128Q112 121 112 103Q120 93 122 81Q129 81 131 66H134Q143 79 146 81L145 88V92L147 94H150Q153 92 164 78V74Q163 64 150 49Q150 42 138 29V28H143Q151 33 175 38Q175 43 178 43Q188 43 200 31Q200 24 191 17Q183 0 175 0Q175 -9 161 -12Q161 -19 131 -32H123L121 -30V-29Q121 -23 133 -19Q133 -16 154 6Q155 11 166 23V24H164Q158 19 138 14Q136 10 125 6Q125 2 117 1Q117 -2 97 -9Q88 -9 86 6V8Q86 14 92 20Q96 33 107 37Q116 44 117 48L126 56Q126 59 118 64H117Q113 64 107 58H102L98 61L93 60H91L83 63Q76 59 70 59Q68 63 64 63L58 62L52 63L38 62L33 64L24 62Q8 62 8 65V69Q8 75 19 80Q29 93 42 100Q47 104 55 118Q66 121 66 132Q67 138 81 139L90 151Z" fill="#FF0100"/></g></g></g><g transform="rotate(120,80,80)"><g transform="translate(68.625,8) scale(0.0888671875,0.137744140625)"><g transform="scale(1,-1) translate(0,-218)"><path d="M153 186Q175 186 175 172Q185 150 185 135L184 115V101L179 70Q179 66 177 66L178 65Q176 33 170 30V28H171L170 21L171 4Q166 -31 161 -31L157 -34H144Q112 -8 112 -3Q100 12 100 15H97Q97 10 93 8Q90 8 85 12H84Q84 5 66 1L65 4Q86 30 86 39V41H85L76 40L75 41L73 39H62L58 44Q56 44 50 53Q47 53 43 58Q41 58 38 67V73Q57 98 63 98L75 109Q77 109 107 128H112L120 125L126 126L127 125V116Q124 112 122 106Q116 106 97 71V70L101 69L103 71H112Q122 63 124 59V56L111 33L109 31L107 27Q103 27 100 19V17Q105 17 130 1L139 -1H140Q144 4 150 28Q150 50 154 68L153 75L155 78L154 82L156 93L153 99V104H155L154 107Q155 117 157 119L156 126L159 136L157 144L158 145L157 150L160 170V171L156 177H151Q145 177 138 172L121 165Q115 165 101 157Q97 157 91 151L67 145Q61 145 58 151V157Q58 161 71 164Q75 167 100 175L102 177H103L106 175L153 186ZM48 68Q53 58 59 56H60Q74 76 76 86L82 94V97L80 99H78Q48 85 48 68Z" fill="#FF0100"/></g></g></g></g><g><g transform="translate(47.5,112.925) scale(0.05078125,0.07871093750000001)"><g transform="scale(1,-1) translate(0,-218)"><path d="M115 180Q121 180 136 171H137Q144 179 157 179L161 175L162 176H167Q175 173 175 167V161Q175 155 156 139L153 135V131L165 133L166 132L185 134L189 132Q191 137 193 137Q214 134 214 128L215 127V124Q215 120 209 112H207L194 111L180 112H175L173 110L174 109L178 110Q189 110 189 92Q189 84 191 79L190 71L194 63V59Q194 52 192 52L196 46L194 38Q196 37 199 9Q201 9 205 -5L206 -6V-7Q206 -17 196 -20H185L181 -13V-7Q171 0 171 6Q161 14 160 20H158V19L161 -9Q155 -11 155 -19L154 -20H145L143 -18V-13Q143 -6 140 0Q140 21 134 21H131L129 19H126L122 23V34L124 37V42L119 50Q120 59 122 59L131 58Q139 63 139 70H135Q127 62 119 59Q116 53 116 44L115 43L116 34V21L118 18V5Q112 -1 110 -9H106Q102 -9 102 3V16L103 17L102 18V19L103 25L102 32L103 36V38H102L103 48V62H100Q100 54 91 51L92 50V47L90 45H88L87 46H86L83 34L79 11L80 6Q80 1 73 0Q68 -11 66 -11H64Q60 -11 56 21V33Q62 37 62 42L63 48L62 52L64 55V63Q61 70 55 70V69Q53 64 51 64Q44 64 30 77V100L36 104H40Q55 104 55 112L57 114L56 119Q65 137 65 146L64 150L65 151H67Q70 151 71 124L70 108V104Q68 102 68 95Q66 95 65 85H64Q66 78 84 70H86Q95 83 100 83Q101 91 107 97Q101 106 89 113V114L91 116H92L97 115Q108 116 113 119V123Q111 125 110 136Q112 160 116 160V169L117 170L113 176V178L115 180ZM133 138L134 137H135Q137 148 145 148L144 154L147 159V161H146Q136 161 136 152Q134 152 133 138ZM128 132V131H129L131 133V134H130L128 132ZM121 121Q126 123 126 125V127Q124 127 121 121ZM152 100H154Q162 107 167 107V110H166Q164 108 153 107L152 100ZM134 98Q134 97 126 94L121 84Q115 81 115 75V73Q123 82 128 83L129 84Q130 86 138 89V97L134 98ZM152 74L157 75Q171 75 171 69V64L163 53Q169 51 169 49V45Q165 40 165 36L167 34V31Q167 29 161 28V26Q167 26 175 20H177L179 22L177 24V34L178 35L176 41V49L175 61H176L175 62V64L176 70Q172 76 171 87L170 88H167L154 81Q154 76 152 74Z" fill="#FF0100"/></g></g><g transform="translate(60.5,112.925) scale(0.05078125,0.07871093750000001)"><g transform="scale(1,-1) translate(0,-218)"><path d="M171 181Q171 179 181 178Q197 167 197 155Q197 150 200 147V146Q200 141 198 141L199 140V135Q199 128 189 112L184 103Q184 91 176 91Q176 89 170 89Q167 84 161 84Q161 82 153 73L154 67L153 63L154 59L153 58H156L161 63V65L158 69V70L159 71V72L166 71H167Q169 71 169 74L179 77Q187 77 190 70V67Q190 57 161 41Q153 40 153 37L155 34L154 28L155 16L154 5L156 -9L150 -31Q147 -31 147 -33H143Q143 -31 140 -28Q140 -19 131 -15Q131 -12 127 -12V-9L129 -7H131L140 -11Q140 -9 144 -9L146 4L144 24L145 25V26L144 29L145 34Q141 30 125 23Q122 19 108 15H107V13L114 6L113 -2H114L125 -14V-15Q112 -24 106 -24H101Q96 -22 93 -11Q90 -11 90 2H89Q83 -17 76 -17Q76 -21 53 -26H49L42 -17V-7Q45 -4 45 17L47 19V37L48 38L47 39V40Q47 50 50 54V55L48 58V59L50 62V70H47Q30 56 23 56H19L11 60Q7 65 2 79V80L4 82H5L8 79Q21 80 26 84Q28 84 42 97Q44 97 51 103L63 104L64 103H65L71 104L76 93L65 61L59 41Q55 17 52 17L53 16V-1Q57 -1 63 18Q65 18 70 38Q72 38 73 43H75V48Q80 56 86 75Q89 75 89 79L90 80H94L95 75V62L93 60L94 55L92 51L91 32L92 17Q94 17 94 20L95 21H98L105 16V19Q100 31 100 37Q102 42 106 44H107L108 43H109Q135 65 140 76L139 77H138L135 75L130 76L126 71L127 65L125 63H124Q114 73 109 83Q104 83 103 93Q101 93 101 96L102 101Q100 101 97 116Q95 116 93 134Q90 134 89 147H92Q96 147 99 129Q103 129 107 111H109L110 112H111L110 113V120L115 139L114 145Q117 146 121 157Q139 181 171 181ZM51 167H59L70 158V154L67 150L52 151H48L43 153V157H45V164Q46 167 51 167ZM153 150V148Q153 146 164 145Q164 141 167 137V132Q165 126 160 126Q157 126 154 117L153 116H152Q153 107 155 107Q155 110 169 111Q170 115 174 117L173 122L175 128L177 130L176 135L177 150Q177 159 164 165H159Q157 165 157 160Q155 160 155 152L153 150ZM145 163V161H146L148 163H145ZM119 127L121 115H123Q128 119 131 128Q137 134 139 134V140Q139 144 133 151V152L134 157H133Q125 152 121 132Q121 127 119 127ZM131 115Q131 113 121 104L120 101L121 100H122Q130 104 133 113L131 115ZM116 42Q116 41 120 39Q131 43 145 53L143 68L128 53L116 42ZM196 44H197L200 42L210 43Q210 41 218 40L221 35V32L220 31V30Q223 30 223 19V18Q214 -2 206 -2Q204 -2 192 -11L183 -13H182V-10Q191 -1 191 8Q193 8 193 21Q193 28 180 34L179 33H177L175 35V36Q175 39 190 41Q191 44 196 44ZM91 10V5H92V10H91Z" fill="#FF0100"/></g></g><g transform="translate(73.5,112.925) scale(0.05078125,0.07871093750000001)"><g transform="scale(1,-1) translate(0,-218)"><path d="M111 187Q131 187 147 169L156 168L166 169Q166 167 173 164V162L170 158Q144 158 144 147Q140 147 138 136L143 133L152 134L157 133L163 134H164Q188 130 188 125Q193 125 195 117V116Q195 107 181 94L172 82Q169 75 167 62L157 60L158 59V58Q164 59 167 61Q205 57 205 54L208 50V48Q208 44 191 43L187 44L180 43L166 45Q166 43 163 43L162 42V38L164 35L163 28L165 26V22L164 21V20L166 18V16L163 12V9L167 4V3Q167 -2 164 -3L165 -4V-7Q156 -30 128 -31Q110 -26 110 -24V-21Q110 -18 117 -18L134 -9L143 4L144 12Q142 12 142 15L144 30Q142 30 142 36L138 39Q130 39 116 32V31Q120 31 123 25Q128 25 128 6L116 2H111Q105 2 100 15Q97 15 96 24Q93 30 88 30L86 28L83 29L78 28H75L73 30Q73 41 79 43Q79 46 81 46L86 45Q92 46 95 48H97L98 47L108 52V54L101 53Q86 61 86 71L85 72V74L86 75V76Q80 86 80 102Q76 102 75 111L73 113V114Q73 130 76 130H80Q82 130 83 123L96 111Q118 126 118 128L120 148Q107 148 99 157V158L102 161L119 159L120 160V161Q120 176 107 182V184Q107 186 111 187ZM131 116V111L134 108L140 109L152 100V98L151 97V96Q155 96 155 103L160 108Q162 117 164 117Q164 123 151 123Q131 120 131 116ZM113 111Q108 104 102 104V102L103 101V100Q113 103 115 106V109L113 111ZM149 94L148 93V92H149L150 93V94H149ZM107 85V84H110V88L107 85ZM117 57L120 54H121L124 57V58L117 57Z" fill="#FF0100"/></g></g><g transform="translate(86.5,112.925) scale(0.05078125,0.07871093750000001)"><g transform="scale(1,-1) translate(0,-218)"><path d="M135 191H161Q174 186 174 180L176 132L178 130V128L177 127L178 126V125L179 89L178 88L179 87V86L178 60V58L176 52L175 6V0Q175 -8 184 -22Q184 -32 171 -40H170Q163 -39 123 7Q118 14 118 17H116Q116 7 108 1H106Q101 1 99 18Q94 34 94 40H97L101 37H102V69L77 56H71L68 59V70Q69 80 77 80Q102 103 103 109L104 116H101Q97 116 87 105H86Q84 105 82 113Q82 122 101 130L102 131V167L99 170Q93 165 83 162H76L74 164V166Q83 179 122 188Q133 189 135 191ZM129 176H121L122 171V137Q141 136 143 131V124Q143 119 121 98V95H122Q144 95 144 91V84Q144 81 122 79Q122 77 118 77V70L120 57L118 53L119 46V39Q152 2 159 2Q161 8 161 18L162 108Q159 180 150 180L129 176ZM57 147Q66 147 69 138Q73 138 74 124V123Q74 120 57 93Q50 75 50 39L48 37V13Q48 -5 43 -5H39Q33 0 33 8L38 72Q41 72 41 91L49 119Q51 119 51 130Q52 130 54 137L56 147H57Z" fill="#FF0100"/></g></g><g transform="translate(99.5,112.925) scale(0.05078125,0.07871093750000001)"><g transform="scale(1,-1) translate(0,-218)"><path d="M111 196Q111 191 114 191L116 193H118Q121 190 127 190L133 176L134 175H139Q140 177 152 178Q156 183 164 183Q174 180 174 178V173L159 164H152L151 165H150L147 161L152 142Q151 138 149 138L150 137V134L146 129H148Q151 133 173 135L176 136H179L182 133L183 134Q203 133 203 129V127Q199 120 197 120H195L189 122Q182 113 171 113L170 114H169Q166 111 154 108Q148 104 142 104L140 106L141 111H140Q132 111 122 97L101 95H89L81 93L73 94L60 87Q54 87 50 84L45 85V89Q50 93 52 98L70 107Q78 107 91 115L86 138H84Q80 135 77 135Q73 135 63 146V147L64 152H70Q82 157 108 164Q108 169 126 169V170Q126 172 119 173L114 172L108 173L104 172L103 173V175L110 179L111 180V181L97 191V192Q97 195 111 196ZM96 138L97 133V130L96 129V128L100 121L101 120H112Q118 124 123 125L132 152H125Q124 150 112 149Q107 146 106 143Q98 143 96 138ZM153 100H156Q163 100 180 87V84Q174 74 166 68Q153 54 153 49L154 40Q130 32 130 26L132 24Q132 26 140 27Q161 27 161 20Q161 16 167 11V10Q167 7 159 6H139Q137 4 130 4L126 -5L127 -6V-7L126 -17L127 -25L126 -26V-27L128 -31Q127 -43 125 -43H124Q121 -43 115 -19L114 -16V-14H115L114 -8L115 0Q109 0 98 -9L82 -19H79Q77 -19 75 -12L77 1V10Q77 13 87 13Q98 16 118 30L115 34H114L111 32H109L108 33L103 31L105 28V26L102 23Q92 23 84 40Q79 40 72 66L71 67V69L75 77L79 79L86 78L112 87L142 94L143 93H144L153 100ZM100 72H94L91 74Q87 71 81 69Q84 59 89 59L95 42Q109 42 119 49Q126 49 138 55Q142 55 142 63L150 72H151V75L155 87L147 89Q128 87 113 80L100 72ZM121 70H128Q137 70 137 63Q137 60 129 59L128 60L106 58Q100 60 100 62V63L107 67H110L114 66L121 70Z" fill="#FF0100"/></g></g></g></g>
</svg>